# xmcd
#
# Track frame offsets:
#	225
#	8805
#	14702
#	20984
#	37333
#	47395
#	52781
#	67735
#	72760
#	82154
#	90296
#	97777
#	104896
#	114524
#	122647
#	128538
#	136218
#	157516
#	173385
#	190746
#	207229
#	223427
#	241565
#	265586
#	282853
#	296584
#	316571
#	330943
#
# Disc length: 4636 seconds
#
# Revision: 0
# Processed by: cddbd v1.5.2PL0 Copyright (c) Steve Scherf et al.
# Submitted via: audiograbber 1.83.01
#
DISCID=7012191c
DTITLE=Mantovani - The Greatest Gift Is Love/Oliver
DYEAR=1900
DGENRE=Easy Listening
TTITLE0=I'd Do Anything
TTITLE1=You've Got To Pick a Pocket Or Two
TTITLE2=Consider Yourself
TTITLE3=Where Is Love
TTITLE4=Oom-Pah-Pah
TTITLE5=Reviewing the Situation
TTITLE6=Oliver
TTITLE7=Who Will Buy
TTITLE8=As Long As He Needs Me
TTITLE9=Lumbered
TTITLE10=Someone Nice Like You
TTITLE11=Meilinki Meilchick
TTITLE12=Once In a Lifetime
TTITLE13=Gonna Build a Mountain
TTITLE14=I Wanna be Rich
TTITLE15=What Kind of Fool Am I?
TTITLE16=The Greatest Gift
TTITLE17=The Old-Fashioned Way
TTITLE18=Si (Go Before You Break My Heart)
TTITLE19=Solitude
TTITLE20=Sing
TTITLE21=Cool Summer Evening
TTITLE22=What Are You Doing the Rest of Your Life?
TTITLE23=The Day of the Locust
TTITLE24=The Entertainer
TTITLE25=Send in the Clowns
TTITLE26=Love Song 'The Freak'
TTITLE27=She
EXTD=
EXTT0=
EXTT1=
EXTT2=
EXTT3=
EXTT4=
EXTT5=
EXTT6=
EXTT7=
EXTT8=
EXTT9=
EXTT10=
EXTT11=
EXTT12=
EXTT13=
EXTT14=
EXTT15=
EXTT16=
EXTT17=
EXTT18=
EXTT19=
EXTT20=
EXTT21=
EXTT22=
EXTT23=
EXTT24=
EXTT25=
EXTT26=
EXTT27=
PLAYORDER=
